<svg width="266" height="235" viewBox="0 0 266 235" fill="none" xmlns="http://www.w3.org/2000/svg">
<path d="M264.951 144.011C264.576 131.203 262.314 84.8798 222.771 45.706C183.222 6.53729 148.946 0.888916 133.131 0.888916C117.312 0.888916 83.0358 6.53729 43.4868 45.706C3.94295 84.8798 1.68152 131.203 1.30114 144.011C0.925972 156.818 1.30114 185.441 1.30114 191.089C1.30114 196.737 4.69329 214.068 18.2515 221.222C31.8097 228.377 116.556 234.025 133.131 234.025C149.701 234.025 234.443 228.377 248.001 221.222C261.564 214.068 264.951 196.737 264.951 191.089C264.951 185.441 265.326 156.818 264.951 144.011Z" fill="#15803D"/>
<path d="M133.126 227.355C113.779 227.355 32.8518 221.384 21.3675 215.324C10.3573 209.514 7.97605 194.497 7.97605 191.094C7.97605 189.755 7.95 187.134 7.92394 183.747C7.83536 172.576 7.68425 153.88 7.97084 144.209C9.03903 107.864 22.9411 75.4434 48.1816 50.4478C61.2031 37.5513 95.5415 7.55868 133.126 7.55868C170.716 7.55868 205.054 37.5513 218.076 50.4478C243.311 75.4434 257.213 107.864 258.281 144.209C258.568 153.88 258.417 172.576 258.328 183.747C258.302 187.134 258.281 189.755 258.281 191.094C258.281 194.497 255.9 209.514 244.89 215.324C233.406 221.384 152.473 227.355 133.126 227.355Z" stroke="white" stroke-width="5.33333" stroke-miterlimit="10"/>
<path d="M62.1931 193.237C61.0259 195.009 59.0459 196.239 56.774 196.239C53.1474 196.239 50.5212 193.216 50.5212 189.465C50.5212 185.692 53.1474 182.67 56.774 182.67C59.0042 182.67 60.9009 183.816 62.0472 185.505L65.7989 182.941C63.923 180.169 60.6507 178.335 56.774 178.335C50.5837 178.335 45.8941 183.316 45.8941 189.465C45.8941 195.572 50.5837 200.574 56.774 200.574C60.7133 200.574 64.0064 198.698 65.9031 195.822L62.1931 193.237Z" fill="white"/>
<path d="M72.4629 189.465C72.4629 185.859 75.2558 182.899 78.8616 182.899C82.4465 182.899 85.2603 185.859 85.2603 189.465C85.2603 193.091 82.4465 196.009 78.8616 196.009C75.2558 196.009 72.4629 193.091 72.4629 189.465ZM67.8775 189.465C67.8775 195.572 72.713 200.574 78.8616 200.574C85.0102 200.574 89.8665 195.572 89.8665 189.465C89.8665 183.316 85.0102 178.335 78.8616 178.335C72.713 178.335 67.8775 183.316 67.8775 189.465Z" fill="white"/>
<path d="M93.6903 200.261H106.425V196.197H98.3174V178.585H93.6903V200.261Z" fill="white"/>
<path d="M109.761 200.261H122.496V196.197H114.388V178.585H109.761V200.261Z" fill="white"/>
<path d="M125.832 200.261H139.838V196.197H130.438V191.591H138.421V187.589H130.438V182.649H139.546V178.585H125.832V200.261Z" fill="white"/>
<path d="M158.586 193.237C157.419 195.009 155.439 196.239 153.167 196.239C149.541 196.239 146.915 193.216 146.915 189.465C146.915 185.692 149.541 182.67 153.167 182.67C155.398 182.67 157.294 183.816 158.441 185.505L162.192 182.941C160.316 180.169 157.044 178.335 153.167 178.335C146.977 178.335 142.287 183.316 142.287 189.465C142.287 195.572 146.977 200.574 153.167 200.574C157.107 200.574 160.4 198.698 162.296 195.822L158.586 193.237Z" fill="white"/>
<path d="M163.854 182.733H169.711V200.261H174.359V182.733H180.216V178.585H163.854V182.733Z" fill="white"/>
<path d="M183.636 178.585V200.261H188.243V178.585H183.636Z" fill="white"/>
<path d="M191.28 178.585L197.888 200.261H201.973L208.58 178.585H203.765L199.93 192.8L196.074 178.585H191.28Z" fill="white"/>
<path d="M211.627 200.261H225.633V196.197H216.233V191.591H224.216V187.589H216.233V182.649H225.341V178.585H211.627V200.261Z" fill="white"/>
<path d="M79.7531 164.442H59.9369V98.0576L44.0808 104.847V87.4382L79.7531 70.4514" fill="white"/>
<path d="M89.4919 164.728V153.968L127.572 108.812C130.406 105.556 132.527 101.877 132.527 98.339C132.527 93.3836 128.28 89.1369 120.918 89.1369C113.841 89.1369 108.886 94.655 107.755 102.018L89.6378 98.9017C92.4672 81.2115 104.499 70.17 122.053 70.17C138.472 70.17 152.343 81.6335 152.343 98.339C152.343 107.254 148.237 115.466 142.578 121.834L121.204 146.043H149.795V164.728" fill="white"/>
<path d="M192.257 106.827C198.63 106.827 201.746 102.581 201.746 97.9118C201.746 93.3837 198.348 89.2777 192.257 89.2777C186.171 89.2777 182.773 93.3837 182.773 97.9118C182.773 102.581 185.889 106.827 192.257 106.827ZM192.257 149.013C200.469 149.013 207.691 143.068 207.691 135.283C207.691 128.207 202.454 121.412 192.116 121.412C182.07 121.412 176.833 128.207 176.833 135.283C176.833 143.068 184.05 149.013 192.257 149.013ZM192.257 71.4415C207.972 71.4415 220.994 83.0509 220.994 97.3438C220.994 103.857 218.451 109.094 214.199 112.919C222.27 117.587 227.507 126.221 227.507 136.273C227.507 153.968 211.651 167.417 192.257 167.417C172.868 167.417 157.012 153.968 157.012 136.273C157.012 126.081 162.249 117.587 170.32 112.919C166.214 108.953 163.666 103.716 163.666 97.3438C163.666 83.0509 176.547 71.4415 192.257 71.4415Z" fill="white"/>
</svg>
