<svg viewBox="0 0 113 93" xmlns="http://www.w3.org/2000/svg">
  <path
    d="M82.7399 78.7747L112.336 27.513L104.606 14.1241L77.9814 60.2387L75.0098 65.3858L64.3416 46.909V46.9085L58.2712 36.3939L45.4133 14.1241H51.3569H67.8101L59.5837 28.3727L67.3134 41.761L83.27 14.1241L90.9992 0.734894H75.5402H37.6835L22.2233 0.735494L29.9534 14.1241L48.8817 46.9085V46.909L67.2794 78.7747L75.0092 92.1639L82.7399 78.7747Z"
    fill="#CB3C3A"
  />
  <path
    d="M38.2141 65.3861L8.7256 14.3106L0.9955 27.6992L30.484 78.7747L38.2141 92.1639L45.9436 78.7744L53.6397 65.4442L45.9102 52.0559L38.2141 65.3861Z"
    fill="#CB3C3A"
  />
</svg>
